<svg version="1.1" id="Layer_1" xmlns="http://www.w3.org/2000/svg" xmlns:xlink="http://www.w3.org/1999/xlink" x="0px" y="0px"
	 width="100%" viewBox="0 0 460 460" enable-background="new 0 0 460 460" xml:space="preserve">
<path fill="#664EC6" opacity="1.000000" stroke="none" 
	d="
M461.000000,317.000000 
	C461.000000,364.971893 461.000000,412.943817 461.000000,460.957855 
	C307.784515,460.957855 154.569000,460.957855 1.000000,460.957855 
	C1.000000,413.313019 1.000000,365.625183 1.354797,317.385376 
	C3.505825,315.747040 5.510775,314.895966 7.055585,313.526031 
	C10.453572,310.512634 12.116847,310.708984 14.204832,314.602600 
	C14.778614,315.672546 16.050638,317.397522 16.643930,317.261292 
	C20.646305,316.342377 25.195477,315.876404 28.321383,313.572723 
	C31.961668,310.889984 33.678059,310.864624 37.090973,313.843903 
	C39.331512,315.799744 43.365658,316.001465 46.651657,316.244873 
	C47.458904,316.304657 48.481541,313.457092 49.860348,311.201508 
	C51.493412,313.690948 52.919209,315.864441 54.625496,318.465515 
	C55.155010,317.312500 55.589828,316.638885 55.778664,315.902161 
	C56.299255,313.871246 54.026676,310.167389 58.564346,310.577057 
	C61.364006,310.829834 65.631996,310.434937 63.789894,315.887634 
	C63.640881,316.328705 65.946976,318.157532 67.281342,318.396301 
	C68.854736,318.677856 70.612419,317.929443 72.290199,317.627625 
	C71.968765,316.432678 71.685196,315.225861 71.315613,314.045990 
	C70.917191,312.774048 70.438232,311.527374 69.994408,310.269653 
	C71.525612,310.448792 73.263321,310.227264 74.546097,310.888397 
	C77.436104,312.377930 80.117584,314.278870 82.851471,316.062134 
	C84.690804,317.261902 86.421539,318.636017 88.305305,319.756531 
	C89.269791,320.330231 90.463692,320.518219 91.553902,320.880554 
	C91.414886,319.786407 91.407494,318.652191 91.090836,317.612122 
	C90.877678,316.911987 90.227432,316.344971 89.514954,315.363190 
	C95.114616,314.220459 100.276512,313.167053 105.877640,312.024017 
	C106.126709,312.704590 106.595253,313.984863 107.546471,316.584015 
	C108.920685,313.881500 109.736984,312.276184 110.228188,311.310181 
	C112.296371,312.673187 114.064674,313.838562 115.897949,315.468384 
	C115.962921,336.183289 115.962921,356.433746 115.962921,376.703735 
	C135.453751,376.703735 154.205688,376.703735 173.324631,376.703735 
	C173.324631,337.055206 173.324631,297.700836 173.324631,258.066010 
	C211.982864,258.066010 250.272247,258.066010 288.535767,258.028076 
	C288.509918,257.990173 288.434052,257.938538 288.453400,258.410553 
	C288.472748,298.081543 288.472748,337.280487 288.472748,376.649902 
	C307.991699,376.649902 326.836273,376.649902 346.166870,376.649902 
	C346.166870,355.201630 346.166870,334.102814 346.488647,313.071960 
	C352.087372,317.096497 352.087372,317.096497 356.010132,309.088470 
	C357.264221,310.668304 358.086456,312.238037 359.368927,313.183441 
	C360.942352,314.343323 362.880463,315.656006 364.696320,315.709930 
	C368.992004,315.837463 373.308594,315.259491 378.246735,314.923981 
	C379.517975,311.339966 381.515015,310.309082 387.356323,312.053711 
	C391.434204,313.271729 394.929291,313.301575 398.632080,310.670502 
	C402.085632,308.216553 406.998718,310.416534 407.634094,314.252838 
	C407.839783,315.494965 407.666382,316.799866 407.666382,318.481873 
	C412.874420,318.255524 417.652710,318.807098 420.230011,313.085449 
	C420.835602,311.741028 423.444458,310.294617 424.869202,310.524170 
	C428.261353,311.070709 431.496582,312.590912 434.795197,313.717773 
	C434.756653,314.326019 434.718109,314.934265 434.679565,315.542511 
	C436.009399,314.649963 437.275818,313.634583 438.689636,312.904602 
	C439.777466,312.342957 441.636108,311.455841 442.144836,311.890961 
	C445.085693,314.406311 446.823120,312.538239 448.955292,310.714630 
	C451.229340,308.769684 454.070801,309.246460 454.173157,312.211945 
	C454.356018,317.511658 457.673920,316.942535 461.000000,317.000000 
z"/>
<path fill="#6D55CE" opacity="1.000000" stroke="none" 
	d="
M1.000000,144.000000 
	C1.000000,96.361061 1.000000,48.722122 1.000000,1.041590 
	C154.216400,1.041590 307.432831,1.041590 461.000000,1.041590 
	C461.000000,50.353672 461.000000,99.708176 460.658142,149.428146 
	C454.831818,149.354202 448.858032,147.352081 443.988495,148.876709 
	C438.094238,150.722168 434.510956,149.809540 431.141235,145.349838 
	C429.536102,143.225494 427.673157,142.925674 426.434570,145.245987 
	C424.842682,148.228027 421.046021,147.666733 419.893219,148.850067 
	C415.680054,153.174820 412.180756,149.598038 408.334442,149.743134 
	C395.806519,150.215759 383.462311,144.669434 370.931793,148.761551 
	C370.496246,148.903778 369.889648,148.839386 369.463867,148.647247 
	C362.028748,145.291931 353.385132,149.687332 346.098206,144.540222 
	C346.029572,124.502495 346.029572,104.929321 346.029572,85.338409 
	C268.998779,85.338409 192.687302,85.338409 115.833214,85.338409 
	C115.833214,106.117264 115.833214,126.560974 115.504990,147.085693 
	C113.910309,148.563599 112.643860,149.960480 111.195023,151.558548 
	C110.536804,151.104843 109.662857,150.798431 109.270653,150.184357 
	C106.603470,146.008286 104.079643,144.789581 98.748802,147.268005 
	C94.077492,149.439789 87.966316,152.966217 82.625984,147.162964 
	C82.198456,146.698380 80.147057,146.895630 79.654198,147.472351 
	C77.829231,149.607803 76.220520,149.413086 74.052826,148.011200 
	C73.074501,147.378510 71.476608,147.304352 70.255249,147.519241 
	C65.975227,148.272202 61.941147,148.608124 59.547874,143.592361 
	C58.243065,145.159302 57.470661,146.874542 56.177639,147.482437 
	C53.091930,148.933167 49.760628,149.861511 46.012192,151.182816 
	C45.130596,147.981674 42.433670,147.073822 38.537304,149.143753 
	C37.803574,149.533539 36.619774,149.013962 35.644638,149.022797 
	C32.258358,149.053482 28.872000,149.195023 25.486700,149.167542 
	C23.610996,149.152328 20.897161,149.616806 20.012280,148.600967 
	C16.680243,144.775818 13.779143,146.516312 10.930639,148.713181 
	C8.548577,150.550323 7.226676,150.868317 5.711390,147.649033 
	C4.957876,146.048157 2.620744,145.192673 1.000000,144.000000 
z"/>
<path fill="#6951C9" opacity="1.000000" stroke="none" 
	d="
M346.166809,145.004791 
	C353.385132,149.687332 362.028748,145.291931 369.463867,148.647247 
	C369.889648,148.839386 370.496246,148.903778 370.931793,148.761551 
	C383.462311,144.669434 395.806519,150.215759 408.334442,149.743134 
	C412.180756,149.598038 415.680054,153.174820 419.893219,148.850067 
	C421.046021,147.666733 424.842682,148.228027 426.434570,145.245987 
	C427.673157,142.925674 429.536102,143.225494 431.141235,145.349838 
	C434.510956,149.809540 438.094238,150.722168 443.988495,148.876709 
	C448.858032,147.352081 454.831818,149.354202 460.658142,149.896805 
	C461.000000,205.354233 461.000000,260.708466 461.000000,316.531342 
	C457.673920,316.942535 454.356018,317.511658 454.173157,312.211945 
	C454.070801,309.246460 451.229340,308.769684 448.955292,310.714630 
	C446.823120,312.538239 445.085693,314.406311 442.144836,311.890961 
	C441.636108,311.455841 439.777466,312.342957 438.689636,312.904602 
	C437.275818,313.634583 436.009399,314.649963 434.679565,315.542511 
	C434.718109,314.934265 434.756653,314.326019 434.795197,313.717773 
	C431.496582,312.590912 428.261353,311.070709 424.869202,310.524170 
	C423.444458,310.294617 420.835602,311.741028 420.230011,313.085449 
	C417.652710,318.807098 412.874420,318.255524 407.666382,318.481873 
	C407.666382,316.799866 407.839783,315.494965 407.634094,314.252838 
	C406.998718,310.416534 402.085632,308.216553 398.632080,310.670502 
	C394.929291,313.301575 391.434204,313.271729 387.356323,312.053711 
	C381.515015,310.309082 379.517975,311.339966 378.246735,314.923981 
	C373.308594,315.259491 368.992004,315.837463 364.696320,315.709930 
	C362.880463,315.656006 360.942352,314.343323 359.368927,313.183441 
	C358.086456,312.238037 357.264221,310.668304 356.010132,309.088470 
	C352.087372,317.096497 352.087372,317.096497 346.419861,312.607452 
	C346.029266,294.162323 346.029266,276.249603 346.029266,257.938538 
	C326.350159,257.938538 307.392120,257.938538 288.434052,257.938538 
	C288.434052,257.938538 288.509918,257.990173 288.510620,257.555939 
	C288.508850,239.845032 288.475098,222.568222 288.548462,205.291870 
	C288.556549,203.385803 289.177765,201.482315 289.494720,199.592072 
	C289.474792,199.606522 289.447327,199.634705 289.865601,199.781555 
	C308.719635,199.928406 327.155396,199.928406 346.166809,199.928406 
	C346.166809,181.258972 346.166809,163.131882 346.166809,145.004791 
z"/>
<path fill="#6951C9" opacity="1.000000" stroke="none" 
	d="
M1.000000,144.468658 
	C2.620744,145.192673 4.957876,146.048157 5.711390,147.649033 
	C7.226676,150.868317 8.548577,150.550323 10.930639,148.713181 
	C13.779143,146.516312 16.680243,144.775818 20.012280,148.600967 
	C20.897161,149.616806 23.610996,149.152328 25.486700,149.167542 
	C28.872000,149.195023 32.258358,149.053482 35.644638,149.022797 
	C36.619774,149.013962 37.803574,149.533539 38.537304,149.143753 
	C42.433670,147.073822 45.130596,147.981674 46.012192,151.182816 
	C49.760628,149.861511 53.091930,148.933167 56.177639,147.482437 
	C57.470661,146.874542 58.243065,145.159302 59.547874,143.592361 
	C61.941147,148.608124 65.975227,148.272202 70.255249,147.519241 
	C71.476608,147.304352 73.074501,147.378510 74.052826,148.011200 
	C76.220520,149.413086 77.829231,149.607803 79.654198,147.472351 
	C80.147057,146.895630 82.198456,146.698380 82.625984,147.162964 
	C87.966316,152.966217 94.077492,149.439789 98.748802,147.268005 
	C104.079643,144.789581 106.603470,146.008286 109.270653,150.184357 
	C109.662857,150.798431 110.536804,151.104843 111.195023,151.558548 
	C112.643860,149.960480 113.910309,148.563599 115.569000,147.550232 
	C115.975021,188.831100 116.004791,229.728439 115.994118,270.625793 
	C115.990257,285.418518 115.889519,300.211212 115.832977,315.003937 
	C114.064674,313.838562 112.296371,312.673187 110.228188,311.310181 
	C109.736984,312.276184 108.920685,313.881500 107.546471,316.584015 
	C106.595253,313.984863 106.126709,312.704590 105.877640,312.024017 
	C100.276512,313.167053 95.114616,314.220459 89.514954,315.363190 
	C90.227432,316.344971 90.877678,316.911987 91.090836,317.612122 
	C91.407494,318.652191 91.414886,319.786407 91.553902,320.880554 
	C90.463692,320.518219 89.269791,320.330231 88.305305,319.756531 
	C86.421539,318.636017 84.690804,317.261902 82.851471,316.062134 
	C80.117584,314.278870 77.436104,312.377930 74.546097,310.888397 
	C73.263321,310.227264 71.525612,310.448792 69.994408,310.269653 
	C70.438232,311.527374 70.917191,312.774048 71.315613,314.045990 
	C71.685196,315.225861 71.968765,316.432678 72.290199,317.627625 
	C70.612419,317.929443 68.854736,318.677856 67.281342,318.396301 
	C65.946976,318.157532 63.640881,316.328705 63.789894,315.887634 
	C65.631996,310.434937 61.364006,310.829834 58.564346,310.577057 
	C54.026676,310.167389 56.299255,313.871246 55.778664,315.902161 
	C55.589828,316.638885 55.155010,317.312500 54.625496,318.465515 
	C52.919209,315.864441 51.493412,313.690948 49.860348,311.201508 
	C48.481541,313.457092 47.458904,316.304657 46.651657,316.244873 
	C43.365658,316.001465 39.331512,315.799744 37.090973,313.843903 
	C33.678059,310.864624 31.961668,310.889984 28.321383,313.572723 
	C25.195477,315.876404 20.646305,316.342377 16.643930,317.261292 
	C16.050638,317.397522 14.778614,315.672546 14.204832,314.602600 
	C12.116847,310.708984 10.453572,310.512634 7.055585,313.526031 
	C5.510775,314.895966 3.505825,315.747040 1.354797,316.916748 
	C1.000000,259.645782 1.000000,202.291550 1.000000,144.468658 
z"/>
<path fill="#FAF8FF" opacity="1.000000" stroke="none" 
	d="
M115.897949,315.468384 
	C115.889519,300.211212 115.990257,285.418518 115.994118,270.625793 
	C116.004791,229.728439 115.975021,188.831100 115.897232,147.469208 
	C115.833214,126.560974 115.833214,106.117264 115.833214,85.338409 
	C192.687302,85.338409 268.998779,85.338409 346.029572,85.338409 
	C346.029572,104.929321 346.029572,124.502495 346.098206,144.540222 
	C346.166809,163.131882 346.166809,181.258972 346.166809,199.928406 
	C327.155396,199.928406 308.719635,199.928406 289.523438,199.470001 
	C288.762970,180.444672 288.762970,161.877747 288.762970,143.271027 
	C249.834045,143.271027 211.943329,143.271027 173.867111,143.271027 
	C173.867111,162.249557 173.867111,180.961456 173.867111,199.783463 
	C175.381531,199.867935 176.535019,199.988174 177.688538,199.988495 
	C213.478333,199.998367 249.268127,200.001526 285.057922,199.978729 
	C286.543579,199.977783 288.029083,199.717239 289.514648,199.577637 
	C289.177765,201.482315 288.556549,203.385803 288.548462,205.291870 
	C288.475098,222.568222 288.508850,239.845032 288.536438,257.593872 
	C250.272247,258.066010 211.982864,258.066010 173.324631,258.066010 
	C173.324631,297.700836 173.324631,337.055206 173.324631,376.703735 
	C154.205688,376.703735 135.453751,376.703735 115.962921,376.703735 
	C115.962921,356.433746 115.962921,336.183289 115.897949,315.468384 
z"/>
<path fill="#FAF8FF" opacity="1.000000" stroke="none" 
	d="
M288.453400,258.410553 
	C307.392120,257.938538 326.350159,257.938538 346.029266,257.938538 
	C346.029266,276.249603 346.029266,294.162323 346.098083,312.539490 
	C346.166870,334.102814 346.166870,355.201630 346.166870,376.649902 
	C326.836273,376.649902 307.991699,376.649902 288.472748,376.649902 
	C288.472748,337.280487 288.472748,298.081543 288.453400,258.410553 
z"/>
<path fill="#6951C9" opacity="1.000000" stroke="none" 
	d="
M289.494720,199.592072 
	C288.029083,199.717239 286.543579,199.977783 285.057922,199.978729 
	C249.268127,200.001526 213.478333,199.998367 177.688538,199.988495 
	C176.535019,199.988174 175.381531,199.867935 173.867111,199.783463 
	C173.867111,180.961456 173.867111,162.249557 173.867111,143.271027 
	C211.943329,143.271027 249.834045,143.271027 288.762970,143.271027 
	C288.762970,161.877747 288.762970,180.444672 289.105164,199.323151 
	C289.447327,199.634705 289.474792,199.606522 289.494720,199.592072 
z"/>
</svg>